# xmcd CD database file
#
# Track frame offsets:
#	150
#	31328
#	53743
#	80905
#	94108
#	105985
#	127648
#	147685
#	162293
#	177010
#	189233
#	203838
#
# Disc length: 2828 seconds
#
# Revision: 0
# Processed by: cddbd v1.5.2PL0 Copyright (c) Steve Scherf et al.
# Submitted via: CDex 1.70beta2
#
DISCID=970b0a0c
DTITLE=Nathanson, Roy and Coleman, Anthony - The coming great
DYEAR=1992
DGENRE=Jazz
TTITLE0=Birds - jews
TTITLE1=Reflections
TTITLE2=La monte's nightmare
TTITLE3=The faker
TTITLE4=You took advantage of me
TTITLE5=Orange was the color of her dress, then blue silk
TTITLE6=By the book
TTITLE7=u.m.m.g.
TTITLE8=Like anthony
TTITLE9=The sheil of avenue b
TTITLE10=Sagedur khossidl
TTITLE11=Intro to abe
EXTD=YEAR: 1992
EXTT0=
EXTT1=
EXTT2=
EXTT3=
EXTT4=
EXTT5=
EXTT6=
EXTT7=
EXTT8=
EXTT9=
EXTT10=
EXTT11=
PLAYORDER=
